<svg version="1.1" id="Layer_1" xmlns="http://www.w3.org/2000/svg" xmlns:xlink="http://www.w3.org/1999/xlink" x="0px" y="0px"
	 width="100%" viewBox="0 0 144 168" enable-background="new 0 0 144 168" xml:space="preserve">
<path fill="#08096D" opacity="1.000000" stroke="none" 
	d="
M71.000000,0.999999 
	C71.444336,1.000000 71.888672,1.000000 72.802353,1.340927 
	C76.023514,3.098792 79.013023,4.188552 81.487991,5.986572 
	C95.907387,16.462011 111.673721,23.828554 129.288513,27.686825 
	C131.700119,28.720676 134.133667,29.119940 136.318634,30.083132 
	C138.260422,30.939127 141.052612,32.107319 141.492111,33.687626 
	C142.581253,37.603901 142.978531,41.845875 142.874603,45.937206 
	C142.462570,62.156147 141.751648,78.367493 141.179733,94.832413 
	C141.088028,95.395409 140.968109,95.707642 140.631348,96.235275 
	C140.336990,96.846184 140.259506,97.241692 140.185364,97.987396 
	C135.872253,109.559120 130.086609,119.921516 121.949562,129.173645 
	C121.518845,129.618332 121.357628,129.955856 121.176010,130.232330 
	C121.155609,130.171295 121.280830,130.201126 121.004814,130.243225 
	C120.504913,130.568619 120.281029,130.851898 120.051956,131.092102 
	C120.046753,131.049026 120.132904,131.059448 119.883385,131.155731 
	C119.441109,131.542770 119.248352,131.833542 119.046219,132.082565 
	C119.036842,132.040833 119.117386,132.069626 118.754974,132.080597 
	C116.978516,134.126022 115.564476,136.160477 114.111130,138.129013 
	C114.071831,138.063110 114.196533,138.152557 113.818298,138.109619 
	C109.738632,139.209915 106.481834,140.753723 106.685020,145.550781 
	C106.610168,145.619614 106.441643,145.733429 106.096161,145.552109 
	C101.592079,145.811523 98.928787,147.945328 98.076164,152.097687 
	C98.066391,152.055084 98.152023,152.072739 97.897552,152.166046 
	C97.452713,152.556381 97.262352,152.853394 97.064728,153.104019 
	C97.057465,153.057632 97.150780,153.068069 96.894699,153.182007 
	C96.497185,153.628479 96.355743,153.961029 96.174568,154.218262 
	C96.134834,154.142944 96.271996,154.243881 95.867073,154.169403 
	C94.641052,154.062332 93.819946,154.029739 92.850166,153.840698 
	C92.467964,154.123199 92.234436,154.562149 92.000458,155.000549 
	C92.000000,155.000000 92.001038,155.001053 91.769958,155.009003 
	C91.360420,155.345245 91.181969,155.673538 90.804749,156.275620 
	C88.725639,158.032333 86.845306,159.515259 84.555206,160.999725 
	C80.537926,162.170593 76.930412,163.339920 72.056450,164.919739 
	C68.138519,163.680481 62.489567,161.893692 56.885300,160.077118 
	C56.929993,160.047302 56.900620,160.150650 56.928482,159.763794 
	C57.098099,153.139908 52.309792,154.655548 48.861828,154.126694 
	C48.937019,154.071686 48.826267,154.221527 48.877090,153.821259 
	C48.952656,152.614670 48.977394,151.808350 49.388260,151.000290 
	C50.781208,150.319260 51.788029,149.639969 52.794846,148.960663 
	C51.596439,147.899277 50.398037,146.837875 49.199635,145.776474 
	C48.943501,146.093323 48.687363,146.410156 48.431229,146.726990 
	C48.620106,148.150620 48.808987,149.574265 48.648842,150.962036 
	C43.573822,146.510223 38.738834,142.201508 34.206734,137.594803 
	C33.208702,136.580338 33.328766,134.495422 32.853489,132.927856 
	C32.468403,131.657776 31.962509,130.424347 31.510201,129.174652 
	C31.134781,129.308334 30.759359,129.442017 30.383938,129.575699 
	C30.383938,130.593643 30.383938,131.611572 30.383938,132.613342 
	C28.024948,131.740814 25.907925,130.957794 23.849106,130.137009 
	C23.907310,130.099258 23.847342,130.224380 23.779018,129.960602 
	C23.418390,129.499802 23.126087,129.302765 22.896658,129.071915 
	C22.959532,129.038086 22.867189,129.147003 22.907063,128.731430 
	C22.842560,120.795494 15.879910,117.681854 12.563548,112.223969 
	C12.494129,112.109718 11.951398,112.283058 11.729159,112.198807 
	C11.828844,112.075371 11.639923,112.317780 11.769768,111.939743 
	C13.036934,109.032173 14.174257,106.502632 15.311580,103.973091 
	C14.880151,103.772659 14.448723,103.572235 14.017294,103.371803 
	C12.193005,104.403511 10.368715,105.435219 8.603271,106.421684 
	C8.662117,106.376434 8.514159,106.388634 8.658392,105.945618 
	C9.065532,102.583092 10.333420,99.268349 9.374278,96.829430 
	C7.584661,92.278763 4.500737,88.237106 1.959608,83.652039 
	C2.005926,82.880272 2.048070,82.440094 2.365966,81.688965 
	C2.761187,72.930359 3.264915,64.465591 2.889555,56.039986 
	C2.530770,47.986473 7.951298,40.277218 4.122101,31.873325 
	C5.115901,31.587015 6.193614,31.208523 7.301345,30.968653 
	C13.563572,29.612625 19.838394,28.314545 26.098108,26.947208 
	C30.406042,26.006210 34.696430,24.984888 38.996956,24.249138 
	C38.999249,24.498810 39.001373,24.998169 39.007492,25.383234 
	C39.811924,26.817551 40.395248,28.266537 41.452160,28.834990 
	C43.842674,30.120718 46.466900,30.971914 48.992043,32.205299 
	C48.988014,32.410755 48.941833,32.819138 48.954498,32.906319 
	C48.967163,32.993500 49.037266,33.155144 48.783176,33.098854 
	C48.356056,33.029850 48.183029,33.017132 47.575371,33.003033 
	C37.845833,35.088646 28.229437,35.074459 18.980503,37.811802 
	C13.563383,39.415066 10.740493,43.032314 12.258416,48.562187 
	C13.160386,51.848118 13.832481,55.294296 13.923161,58.686733 
	C14.154047,67.324501 13.908222,75.974480 14.088834,84.614647 
	C14.119656,86.089127 15.316049,87.539238 15.983407,89.444122 
	C15.999815,92.254723 16.006792,94.621826 15.742916,97.225227 
	C15.153874,101.955101 18.485800,99.315895 20.099339,99.927628 
	C20.016142,99.983192 20.164642,99.849068 20.029049,100.123474 
	C19.598244,100.930244 19.303034,101.462616 18.848934,102.142548 
	C19.126215,102.526840 19.562382,102.763573 20.001564,103.248215 
	C20.004580,103.496117 20.009382,103.991943 20.019489,104.401062 
	C21.244789,105.390694 22.459984,105.971222 23.876255,106.669617 
	C24.382093,107.125786 24.686853,107.464066 24.994026,108.192368 
	C25.332903,110.053726 25.669365,111.525063 26.138912,113.305794 
	C30.435501,119.809929 34.599003,126.004669 38.661079,132.048492 
	C40.257534,132.752945 42.149593,133.582031 44.036739,134.422150 
	C45.987827,135.290741 47.934147,136.170029 49.959663,137.001038 
	C50.036777,136.957413 50.211704,136.929199 50.158047,137.176483 
	C50.127487,137.590881 50.150581,137.757996 49.902687,138.108978 
	C49.889229,142.493759 53.013851,142.688614 56.083450,142.934753 
	C56.059750,142.942291 56.085983,142.898499 56.100716,143.228577 
	C58.848724,145.153091 57.281929,150.440842 62.320171,150.359253 
	C64.357391,150.326263 66.605400,151.728470 68.433762,152.958664 
	C71.568893,155.068115 75.822807,154.261047 77.255188,151.004425 
	C77.502670,151.000702 77.998451,150.999786 78.317627,150.974411 
	C79.424248,150.631897 80.211693,150.314774 81.056229,150.344086 
	C83.075340,151.127487 85.037361,151.564438 87.374527,152.000168 
	C89.601036,151.823090 92.280327,152.267670 90.000130,148.630219 
	C89.666267,147.176147 89.332573,146.087555 89.219910,144.730209 
	C91.686012,141.090973 97.545807,140.528656 96.894371,134.916077 
	C96.914124,134.939529 96.854790,134.927063 97.099106,134.854385 
	C97.562027,134.530136 97.780632,134.278564 98.197250,133.844879 
	C98.729828,133.251801 99.064384,132.840836 99.189514,132.311493 
	C98.980087,132.193115 99.401817,132.415588 99.597855,132.322754 
	C99.793900,132.229919 99.987656,131.840439 100.257629,131.743225 
	C101.159096,130.953949 101.790596,130.261856 102.444412,129.520828 
	C102.466736,129.471878 102.571007,129.445328 102.865402,129.305634 
	C106.389000,125.111237 109.618210,121.056541 112.935257,116.804672 
	C113.023087,116.607498 113.083633,116.180054 113.408218,116.070885 
	C116.190453,112.328560 118.648109,108.695412 121.061432,105.042999 
	C121.017105,105.023735 121.070618,105.104248 121.366692,104.925682 
	C123.953308,99.352303 126.243843,93.957497 128.545685,88.494354 
	C128.557007,88.426033 128.562531,88.287628 128.703079,88.103615 
	C128.935928,87.607697 128.922989,87.300163 128.886612,86.595490 
	C129.243622,73.109566 129.604675,60.025799 129.700592,46.940086 
	C129.714828,44.999306 128.478027,43.049355 128.011185,40.894192 
	C122.132271,37.428478 115.730278,35.968620 108.901398,37.094944 
	C108.954887,37.081051 108.954742,37.191589 108.759911,36.874252 
	C107.608177,36.407368 106.651268,36.257816 105.398560,35.897018 
	C102.502342,35.007847 99.901939,34.329929 97.224571,33.682014 
	C97.147606,33.712021 97.312119,33.727249 97.177231,33.496696 
	C96.700310,33.208477 96.358261,33.150803 95.863426,32.983311 
	C95.710632,32.873493 95.334373,32.880226 95.263184,32.664806 
	C95.191994,32.449387 94.986259,32.044949 94.819000,31.789047 
	C94.080193,31.368853 93.508636,31.204557 92.960075,31.017162 
	C92.983063,30.994064 92.968147,31.057463 92.968628,30.679768 
	C89.584587,28.560089 86.200058,26.818106 82.538361,25.030815 
	C81.845337,24.649984 81.429489,24.314457 81.005402,23.608345 
	C78.724449,18.058968 74.959633,16.198841 71.177979,18.327686 
	C71.159180,18.259809 71.289124,18.314169 70.952499,18.250221 
	C70.065491,18.767067 69.515099,19.347860 68.976334,19.962807 
	C68.987953,19.996960 68.924850,19.961973 68.561905,19.978651 
	C67.537422,20.749958 66.875877,21.504587 66.176582,22.209599 
	C66.138832,22.159983 66.261513,22.182287 65.987778,22.230633 
	C65.497032,22.565411 65.280022,22.851841 65.054565,23.092920 
	C65.046135,23.047569 65.127472,23.091108 64.741211,23.068296 
	C60.238403,24.698727 56.121853,26.351969 51.954365,27.664986 
	C48.367859,23.674755 44.827293,20.035061 38.747047,21.057743 
	C38.298798,21.010403 38.119247,20.993851 38.172421,20.708447 
	C49.270092,13.959727 60.135044,7.479862 71.000000,0.999999 
M8.028533,77.793335 
	C8.028533,80.359779 8.028533,82.926224 8.028533,85.492668 
	C8.678743,85.482056 9.328953,85.471436 9.979163,85.460823 
	C10.074279,83.767609 10.452902,82.025078 10.169806,80.397652 
	C9.963975,79.214394 8.883582,78.183266 8.028533,77.793335 
M22.374832,113.019493 
	C21.651537,113.649162 20.928242,114.278824 20.204947,114.908493 
	C21.005472,115.561005 21.735424,116.580017 22.628481,116.751999 
	C23.364967,116.893814 24.294569,116.032768 25.138596,115.616150 
	C24.458643,114.754189 23.778688,113.892220 22.374832,113.019493 
M18.999977,109.344604 
	C18.999977,108.229881 18.999977,107.115150 18.999977,105.323410 
	C17.969603,107.372398 17.098648,108.711159 16.664970,110.179108 
	C16.512274,110.695976 17.430405,111.529205 17.859604,112.217987 
	C18.239586,111.500427 18.619568,110.782867 18.999977,109.344604 
M18.958014,34.327053 
	C19.059788,33.361057 19.161564,32.395058 19.263338,31.429064 
	C18.684824,31.495213 18.106310,31.561363 17.527798,31.627512 
	C17.793665,32.626163 18.059534,33.624817 18.958014,34.327053 
M80.709511,155.875015 
	C79.869797,156.024445 79.030083,156.173874 78.190369,156.323288 
	C78.655762,157.072479 79.121155,157.821671 79.586540,158.570862 
	C80.027504,157.899506 80.468475,157.228134 80.709511,155.875015 
M65.209267,157.971146 
	C66.020271,157.742676 66.831284,157.514221 67.642288,157.285751 
	C67.251373,156.674194 66.860458,156.062637 66.469543,155.451080 
	C66.000603,156.072083 65.531654,156.693100 65.209267,157.971146 
M96.817314,145.542831 
	C96.387321,145.590652 95.957336,145.638474 95.527344,145.686310 
	C95.704605,146.056366 95.881866,146.426437 96.059135,146.796494 
	C96.440681,146.509521 96.822227,146.222534 96.817314,145.542831 
M8.393901,53.201202 
	C8.786561,53.205418 9.179221,53.209637 9.571882,53.213852 
	C9.573421,53.050907 9.585896,52.746346 9.574917,52.745495 
	C9.184196,52.715324 8.791281,52.713585 8.393901,53.201202 
z"/>
<path fill="#FDFDFE" opacity="1.000000" stroke="none" 
	d="
M140.848175,96.019875 
	C140.968109,95.707642 141.088028,95.395409 141.447861,94.546089 
	C142.184708,92.343010 142.681641,90.677025 143.392746,88.835258 
	C144.071274,88.106323 144.535629,87.553154 145.000000,87.000000 
	C145.000000,114.254951 145.000000,141.509903 145.000000,169.000000 
	C121.646301,169.000000 98.291809,169.000000 74.468597,168.755219 
	C73.999878,168.510452 74.003899,168.020950 74.262177,167.778992 
	C78.014420,165.703369 81.508400,163.869736 85.347260,161.981186 
	C89.218758,159.365463 92.745377,156.804672 96.271988,154.243881 
	C96.271996,154.243881 96.134834,154.142944 96.429398,154.110428 
	C96.866241,153.741302 97.008514,153.404678 97.150787,153.068069 
	C97.150780,153.068069 97.057465,153.057632 97.321777,153.014175 
	C97.774727,152.671387 97.963371,152.372055 98.152023,152.072739 
	C98.152023,152.072739 98.066391,152.055084 98.426056,152.045532 
	C101.337700,149.935135 103.889671,147.834274 106.441643,145.733429 
	C106.441643,145.733429 106.610168,145.619614 106.947533,145.381287 
	C109.588776,142.812836 111.892654,140.482697 114.196533,138.152557 
	C114.196533,138.152557 114.071831,138.063110 114.422684,138.002716 
	C116.221481,135.984756 117.669434,134.027191 119.117386,132.069626 
	C119.117386,132.069626 119.036842,132.040833 119.304031,131.997742 
	C119.758446,131.656250 119.945671,131.357849 120.132904,131.059448 
	C120.132904,131.059448 120.046753,131.049026 120.317993,131.016846 
	C120.819771,130.723495 121.050301,130.462311 121.280830,130.201126 
	C121.280830,130.201126 121.155609,130.171295 121.439133,130.120667 
	C121.888123,129.735519 122.053596,129.401001 122.219070,129.066467 
	C130.086609,119.921516 135.872253,109.559120 140.435501,97.790359 
	C140.737595,96.835388 140.792892,96.427628 140.848175,96.019875 
z"/>
<path fill="#FDFDFE" opacity="1.000000" stroke="none" 
	d="
M71.000000,169.000000 
	C47.734463,169.000000 24.468925,169.000000 1.000000,169.000000 
	C1.000000,142.312790 1.000000,115.625053 1.330256,88.637451 
	C2.821466,92.102150 3.982420,95.866722 5.157360,99.896301 
	C5.382271,100.436378 5.593196,100.711441 5.916400,101.209778 
	C6.028678,101.433044 6.023737,101.932831 6.064303,102.143356 
	C6.217326,102.632004 6.407487,102.838623 6.835921,103.259140 
	C7.502378,104.492569 8.008268,105.440605 8.514158,106.388634 
	C8.514159,106.388634 8.662117,106.376434 8.685941,106.744965 
	C9.686483,108.848259 10.663202,110.583023 11.639921,112.317780 
	C11.639923,112.317780 11.828844,112.075371 11.805589,112.539543 
	C15.477284,118.384811 19.172235,123.765907 22.867188,129.147003 
	C22.867189,129.147003 22.959532,129.038086 22.964310,129.337311 
	C23.261839,129.832474 23.554590,130.028427 23.847342,130.224380 
	C23.847342,130.224380 23.907310,130.099258 23.959990,130.453796 
	C32.283867,138.612732 40.555065,146.417130 48.826263,154.221527 
	C48.826267,154.221527 48.937019,154.071686 49.009735,154.429733 
	C51.688511,156.575394 54.294567,158.363022 56.900620,160.150650 
	C56.900620,160.150650 56.929993,160.047302 56.954697,160.433212 
	C59.655167,162.278214 62.330933,163.737305 65.158737,165.397888 
	C65.624069,165.698120 65.937370,165.796860 66.579811,165.925385 
	C68.273613,166.636093 69.638283,167.317032 71.001663,168.248474 
	C71.000267,168.665970 71.000137,168.832977 71.000000,169.000000 
M4.467174,109.121033 
	C5.168786,110.391479 5.870397,111.661919 6.572009,112.932365 
	C7.116249,112.629089 7.660490,112.325813 8.204731,112.022545 
	C6.908446,109.745354 5.612161,107.468170 4.315876,105.190987 
	C3.932089,105.354218 3.548302,105.517441 3.164515,105.680672 
	C3.456380,106.636604 3.748245,107.592545 4.467174,109.121033 
M3.482826,103.589600 
	C3.482826,103.589600 3.415153,103.476891 3.482826,103.589600 
z"/>
<path fill="#FDFDFD" opacity="1.000000" stroke="none" 
	d="
M129.202316,27.297546 
	C111.673721,23.828554 95.907387,16.462011 81.487991,5.986572 
	C79.013023,4.188552 76.023514,3.098792 73.135849,1.340927 
	C96.893448,1.000000 120.786896,1.000000 145.000000,1.000000 
	C145.000000,9.684945 145.000000,18.373810 144.643311,27.568804 
	C143.407455,28.441952 142.528275,28.808971 141.247559,29.124191 
	C136.964783,28.480778 133.083542,27.889162 129.202316,27.297546 
z"/>
<path fill="#FCFCFD" opacity="1.000000" stroke="none" 
	d="
M70.531342,0.999999 
	C60.135044,7.479862 49.270092,13.959727 37.795250,20.709202 
	C25.123571,23.985876 13.061786,26.992939 1.000000,30.000000 
	C1.000000,20.376251 1.000000,10.752502 1.000000,1.000000 
	C24.020750,1.000000 47.041718,1.000000 70.531342,0.999999 
z"/>
<path fill="#080A6C" opacity="1.000000" stroke="none" 
	d="
M1.000000,30.466118 
	C13.061786,26.992939 25.123571,23.985876 37.562531,20.978058 
	C38.119247,20.993851 38.298798,21.010403 38.741539,21.420124 
	C39.001373,22.542021 38.998016,23.270742 38.994659,23.999466 
	C34.696430,24.984888 30.406042,26.006210 26.098108,26.947208 
	C19.838394,28.314545 13.563572,29.612625 7.301345,30.968653 
	C6.193614,31.208523 5.115901,31.587015 4.122101,31.873325 
	C7.951298,40.277218 2.530770,47.986473 2.889555,56.039986 
	C3.264915,64.465591 2.761187,72.930359 2.324239,81.221725 
	C1.997103,70.589767 2.027194,60.113750 1.934396,49.638817 
	C1.920674,48.089909 1.325929,46.546143 1.000000,45.000000 
	C1.000000,40.310745 1.000000,35.621490 1.000000,30.466118 
z"/>
<path fill="#F1F5FB" opacity="1.000000" stroke="none" 
	d="
M141.649109,29.175991 
	C142.528275,28.808971 143.407455,28.441952 144.643311,28.037466 
	C145.000000,47.354229 145.000000,66.708458 145.000000,86.531342 
	C144.535629,87.553154 144.071274,88.106323 143.355591,88.381882 
	C143.404968,84.549568 143.948975,80.995811 143.963074,77.439957 
	C144.015701,64.171524 144.016953,50.899849 143.740814,37.635567 
	C143.681824,34.802422 142.378937,31.995173 141.649109,29.175991 
z"/>
<path fill="#080A6C" opacity="1.000000" stroke="none" 
	d="
M6.023737,101.932831 
	C6.023737,101.932831 6.028678,101.433044 5.943308,100.930756 
	C5.619751,100.162735 5.381564,99.897011 5.143375,99.631287 
	C3.982420,95.866722 2.821466,92.102150 1.330256,88.168793 
	C1.000000,86.933327 1.000000,85.866661 1.239006,84.404526 
	C1.478012,84.009071 1.955433,83.983627 1.955433,83.983627 
	C4.500737,88.237106 7.584661,92.278763 9.374278,96.829430 
	C10.333420,99.268349 9.065532,102.583092 8.658391,105.945618 
	C8.008268,105.440605 7.502378,104.492569 6.840082,103.032585 
	C6.553017,102.224419 6.333037,102.028481 6.023737,101.932831 
z"/>
<path fill="#45439C" opacity="1.000000" stroke="none" 
	d="
M1.959608,83.652039 
	C1.955433,83.983627 1.478012,84.009071 1.239006,84.004532 
	C1.000000,71.312439 1.000000,58.624878 1.000000,45.468658 
	C1.325929,46.546143 1.920674,48.089909 1.934396,49.638817 
	C2.027194,60.113750 1.997103,70.589767 2.048487,81.532669 
	C2.048070,82.440094 2.005926,82.880272 1.959608,83.652039 
z"/>
<path fill="#EEEFF8" opacity="1.000000" stroke="none" 
	d="
M71.375000,169.000000 
	C71.000137,168.832977 71.000267,168.665970 71.376450,168.221130 
	C72.502975,167.969162 73.253433,167.995056 74.003899,168.020950 
	C74.003899,168.020950 73.999878,168.510452 73.999939,168.755219 
	C73.250000,169.000000 72.500000,169.000000 71.375000,169.000000 
z"/>
<path fill="#A8D2EF" opacity="1.000000" stroke="none" 
	d="
M113.083633,116.180054 
	C113.083633,116.180054 113.023087,116.607498 112.601410,116.801346 
	C108.434967,116.970032 103.230865,123.713051 102.571007,129.445328 
	C102.571007,129.445328 102.466736,129.471878 102.106339,129.376770 
	C101.150330,129.860535 100.554726,130.439407 99.737411,131.185013 
	C99.477730,131.706360 99.439774,132.060974 99.401817,132.415588 
	C99.401817,132.415588 98.980087,132.193115 98.824142,132.182098 
	C93.781708,131.364182 90.457756,134.557785 90.873489,139.671890 
	C90.761292,139.791443 90.448059,139.888443 90.123497,139.658600 
	C87.086472,139.725891 84.374016,140.023041 81.388832,140.350052 
	C82.538322,142.397415 83.276970,143.713013 84.011215,145.011688 
	C84.006821,144.994781 84.033958,145.018372 83.717697,145.042160 
	C82.974327,145.465195 82.547226,145.864441 82.115097,146.205688 
	C82.110062,146.147675 82.217163,146.193436 81.830688,146.136505 
	C80.316711,147.112167 79.189209,148.144775 78.043289,149.365692 
	C78.024872,149.554001 77.973335,149.928864 77.726013,149.959076 
	C77.478691,149.989273 76.980385,149.991653 76.610756,149.995270 
	C75.163635,150.638702 74.086143,151.278534 72.656265,151.974731 
	C68.825165,149.812546 65.346451,147.594009 61.775806,145.082794 
	C61.316700,144.684006 60.949520,144.577927 60.545544,144.452179 
	C60.508747,144.432510 60.427353,144.450882 60.592010,144.057388 
	C60.224697,136.748291 54.222103,138.398407 50.211704,136.929199 
	C50.211704,136.929199 50.036777,136.957413 50.005474,136.669815 
	C49.309483,135.553574 48.644794,134.724945 47.841881,133.689835 
	C47.450226,133.242126 47.148560,133.119461 46.855797,133.101440 
	C46.912937,133.087509 46.903164,133.204727 46.810242,132.936356 
	C46.395168,132.491943 46.073017,132.315903 45.822292,132.123474 
	C45.893719,132.107101 45.880329,132.253052 45.777962,131.965546 
	C45.328129,131.489426 44.980667,131.300827 44.440834,131.073090 
	C43.994328,130.889145 43.871578,130.670563 43.881401,130.005585 
	C43.371384,129.339172 42.860188,129.045380 42.310791,128.751282 
	C42.272591,128.750977 42.196472,128.744400 42.362247,128.395599 
	C38.465572,121.913353 34.449890,115.748253 30.325655,109.656654 
	C27.113615,104.912384 21.966854,101.372826 22.386992,94.457436 
	C22.492273,92.724541 20.972301,89.083420 17.091120,89.689690 
	C16.936462,88.956429 16.870966,88.532501 17.112984,87.868301 
	C17.281374,82.957329 17.209255,78.283325 16.979979,73.617058 
	C16.822601,70.414093 16.446840,67.221863 16.095978,63.800941 
	C16.023256,63.577053 15.962770,63.110146 15.974176,62.805332 
	C15.977996,62.297314 15.970408,62.094105 15.988897,61.659161 
	C16.014973,61.427425 16.136114,60.977036 16.402008,60.668297 
	C16.779907,57.755516 16.817667,55.145683 17.020237,52.548710 
	C17.380148,47.934635 16.291780,42.336842 23.844948,42.426708 
	C24.552322,42.435127 25.277617,40.937550 26.291655,40.025204 
	C26.999935,39.807655 27.411152,39.704102 28.020073,39.922493 
	C30.385826,41.472935 32.076900,41.401573 32.800674,38.619576 
	C32.843140,38.660789 32.725655,38.675117 33.036755,38.760960 
	C33.889618,38.593346 34.431385,38.339890 35.207245,37.919128 
	C35.977882,37.589485 36.514423,37.427143 37.328003,37.486588 
	C39.734055,36.851757 41.863060,35.995144 44.278610,34.986099 
	C45.580284,34.514671 46.595417,34.195679 47.886177,33.841610 
	C48.453629,33.589405 48.745449,33.372276 49.037266,33.155144 
	C49.037266,33.155144 48.967163,32.993500 49.187397,32.968025 
	C49.407631,32.942551 49.889057,32.962215 50.301430,32.973717 
	C53.022652,32.872887 55.883457,33.640419 55.883682,29.823593 
	C55.931423,29.875252 55.797180,29.833178 56.174797,29.846327 
	C57.067463,29.375923 57.582516,28.892370 58.200821,28.266722 
	C58.304073,28.124626 58.651657,28.073685 58.750431,28.405464 
	C59.306480,29.748777 59.763752,30.760311 60.667248,32.758934 
	C61.970982,29.399979 62.876171,27.067831 63.797039,24.729935 
	C63.812714,24.724184 63.776241,24.707186 64.187607,24.790707 
	C65.912285,24.802643 67.637589,25.245052 68.472115,24.576139 
	C73.929771,20.201597 77.597610,23.878496 81.226219,27.257627 
	C85.242035,30.997356 89.952042,32.712059 95.334373,32.880226 
	C95.334373,32.880226 95.710632,32.873493 96.017349,33.192932 
	C96.653419,33.583996 96.982773,33.655621 97.312119,33.727249 
	C97.312119,33.727249 97.147606,33.712021 97.139275,34.086937 
	C98.091942,35.590057 98.855392,37.356850 100.050972,37.726688 
	C103.632393,38.834560 107.359138,39.556072 111.076866,40.105587 
	C113.012550,40.391701 115.048653,39.998436 117.368515,39.929008 
	C118.129463,40.015816 118.561272,40.085655 119.072113,40.512016 
	C120.393494,41.569775 121.680000,42.935413 122.870491,42.856308 
	C127.810699,42.528042 128.087311,45.382576 128.049011,49.152721 
	C127.920853,61.767143 127.999664,74.383667 128.093536,87.341782 
	C128.312759,87.885323 128.437637,88.086479 128.562531,88.287628 
	C128.562531,88.287628 128.557007,88.426033 128.172729,88.350342 
	C122.528191,92.678635 122.814514,99.296646 121.070618,105.104248 
	C121.070618,105.104248 121.017105,105.023735 120.703888,105.055717 
	C114.876122,106.756966 114.245934,111.643776 113.083633,116.180054 
M81.488876,113.956131 
	C81.680695,113.678047 81.872513,113.399971 82.706863,113.037163 
	C83.134308,112.982819 83.561745,112.928474 84.785378,112.549767 
	C84.792816,106.383064 84.800255,100.216362 85.292274,93.301842 
	C87.604698,93.202194 89.916946,93.021194 92.229568,93.016502 
	C104.463539,92.991684 104.568489,93.004684 104.289307,80.703300 
	C104.193901,76.499649 103.426559,72.311234 102.601295,67.548248 
	C101.405411,67.693657 100.209534,67.839066 98.217583,68.147316 
	C97.143089,68.095695 96.068588,68.044075 94.479958,67.431236 
	C86.135025,66.176064 86.167419,66.175346 85.969315,57.224270 
	C85.938362,55.825794 85.458885,54.437248 85.005096,52.214809 
	C83.627151,51.439247 82.278358,50.064980 80.865982,49.996189 
	C75.886963,49.753677 70.881744,50.098652 65.895210,49.942181 
	C62.875988,49.847439 61.685268,50.914509 61.777733,53.958603 
	C61.927727,58.896561 61.818142,63.842407 61.818142,68.913139 
	C55.174030,69.315407 49.107033,69.682739 42.496056,70.083000 
	C42.496056,76.439804 42.502453,82.243172 42.493347,88.046516 
	C42.488827,90.929108 43.821835,92.224083 46.783150,92.148193 
	C51.563446,92.025658 56.349178,92.115250 61.436741,92.115250 
	C61.436741,94.261108 61.319054,95.873741 61.458069,97.463936 
	C61.939178,102.967384 62.509632,108.463028 63.149883,114.721489 
	C67.373055,119.114075 72.742813,116.324219 77.561211,116.844543 
	C78.598213,116.956528 79.848045,115.097618 81.488876,113.956131 
z"/>
<path fill="#080A6C" opacity="1.000000" stroke="none" 
	d="
M16.136114,60.977036 
	C16.136114,60.977036 16.014973,61.427425 15.739039,61.755997 
	C15.629661,62.426426 15.796216,62.768288 15.962770,63.110146 
	C15.962770,63.110146 16.023256,63.577053 16.027924,64.263908 
	C16.034620,72.600769 16.036650,80.250771 16.021301,88.175659 
	C15.993940,88.633904 15.983958,88.817253 15.973977,89.000610 
	C15.316049,87.539238 14.119656,86.089127 14.088834,84.614647 
	C13.908222,75.974480 14.154047,67.324501 13.923161,58.686733 
	C13.832481,55.294296 13.160386,51.848118 12.258416,48.562187 
	C10.740493,43.032314 13.563383,39.415066 18.980503,37.811802 
	C28.229437,35.074459 37.845833,35.088646 47.464073,33.215858 
	C47.787399,33.430061 47.610550,33.876686 47.610550,33.876686 
	C46.595417,34.195679 45.580284,34.514671 43.913651,34.987423 
	C41.191750,35.849056 39.121357,36.556927 37.050961,37.264801 
	C36.514423,37.427143 35.977882,37.589485 34.898590,37.886261 
	C33.812439,38.238834 33.269047,38.456978 32.725655,38.675117 
	C32.725655,38.675117 32.843140,38.660789 32.436291,38.669197 
	C30.627083,38.985252 29.224724,39.292896 27.822367,39.600544 
	C27.411152,39.704102 26.999935,39.807655 25.879065,39.971924 
	C23.410704,40.339367 21.634195,40.978825 19.896873,40.885868 
	C15.861704,40.669956 15.110878,43.391453 15.151668,46.259167 
	C15.221499,51.168797 15.781784,56.071453 16.136114,60.977036 
z"/>
<path fill="#0F1157" opacity="1.000000" stroke="none" 
	d="
M141.247559,29.124193 
	C142.378937,31.995173 143.681824,34.802422 143.740814,37.635567 
	C144.016953,50.899849 144.015701,64.171524 143.963074,77.439957 
	C143.948975,80.995811 143.404968,84.549568 143.141418,88.557663 
	C142.681641,90.677025 142.184708,92.343010 141.419647,94.295334 
	C141.751648,78.367493 142.462570,62.156147 142.874603,45.937206 
	C142.978531,41.845875 142.581253,37.603901 141.492111,33.687626 
	C141.052612,32.107319 138.260422,30.939127 136.318634,30.083132 
	C134.133667,29.119940 131.700119,28.720676 129.288513,27.686825 
	C133.083542,27.889162 136.964783,28.480778 141.247559,29.124193 
z"/>
<path fill="#AFCDFA" opacity="1.000000" stroke="none" 
	d="
M17.180283,89.999016 
	C20.972301,89.083420 22.492273,92.724541 22.386992,94.457436 
	C21.966854,101.372826 27.113615,104.912384 30.325655,109.656654 
	C34.449890,115.748253 38.465572,121.913353 42.081085,128.227203 
	C37.271393,123.233925 32.908638,118.060242 28.420738,112.557159 
	C27.194267,110.752617 26.092941,109.277481 24.991615,107.802345 
	C24.686853,107.464066 24.382093,107.125786 23.853334,106.636436 
	C23.629335,106.485374 23.683510,106.430763 23.858126,106.142441 
	C22.743376,103.852432 21.454008,101.850746 20.164642,99.849068 
	C20.164642,99.849068 20.016142,99.983192 20.058964,99.700974 
	C20.101786,99.418762 19.939756,98.987587 20.011211,98.748199 
	C20.059303,98.151497 19.901295,97.869736 19.593941,97.645493 
	C19.579239,97.627472 19.628384,97.611824 19.481831,97.272141 
	C18.616947,94.621315 17.898615,92.310165 17.180283,89.999016 
z"/>
<path fill="#080A6C" opacity="1.000000" stroke="none" 
	d="
M28.545885,112.886559 
	C32.908638,118.060242 37.271393,123.233925 41.915310,128.576004 
	C42.196472,128.744400 42.272591,128.750977 42.406387,129.019440 
	C42.986858,129.651321 43.433540,130.014771 43.880222,130.378204 
	C43.871578,130.670563 43.994328,130.889145 44.571606,131.337982 
	C45.223270,131.845688 45.551800,132.049362 45.880329,132.253052 
	C45.880329,132.253052 45.893719,132.107101 45.921200,132.386444 
	C46.266842,132.845428 46.585003,133.025070 46.903164,133.204727 
	C46.903164,133.204727 46.912937,133.087509 46.962875,133.356079 
	C47.335239,133.715195 47.657673,133.805756 47.980103,133.896317 
	C48.644794,134.724945 49.309483,135.553574 49.928360,136.713440 
	C47.934147,136.170029 45.987827,135.290741 44.036739,134.422150 
	C42.149593,133.582031 40.257534,132.752945 38.661079,132.048492 
	C34.599003,126.004669 30.435501,119.809929 26.561895,113.303436 
	C27.416491,112.956650 27.981186,112.921608 28.545885,112.886559 
z"/>
<path fill="#080A6C" opacity="1.000000" stroke="none" 
	d="
M48.877090,153.821259 
	C40.555065,146.417130 32.283867,138.612732 23.901783,130.491547 
	C25.907925,130.957794 28.024948,131.740814 30.383938,132.613342 
	C30.383938,131.611572 30.383938,130.593643 30.383938,129.575699 
	C30.759359,129.442017 31.134781,129.308334 31.510201,129.174652 
	C31.962509,130.424347 32.468403,131.657776 32.853489,132.927856 
	C33.328766,134.495422 33.208702,136.580338 34.206734,137.594803 
	C38.738834,142.201508 43.573822,146.510223 48.649910,150.963074 
	C49.000000,151.000000 49.002136,151.002029 49.002136,151.002029 
	C48.977394,151.808350 48.952656,152.614670 48.877090,153.821259 
z"/>
<path fill="#ADCBF6" opacity="1.000000" stroke="none" 
	d="
M95.263184,32.664806 
	C89.952042,32.712059 85.242035,30.997356 81.226219,27.257627 
	C77.597610,23.878496 73.929771,20.201597 68.472115,24.576139 
	C67.637589,25.245052 65.912285,24.802643 64.331299,24.561783 
	C64.418236,23.863262 64.772858,23.477184 65.127472,23.091106 
	C65.127472,23.091108 65.046135,23.047569 65.319687,23.023525 
	C65.816002,22.727085 66.038757,22.454687 66.261513,22.182289 
	C66.261513,22.182287 66.138832,22.159983 66.465813,22.112045 
	C67.503479,21.363396 68.214165,20.662685 68.924850,19.961973 
	C68.924850,19.961973 68.987953,19.996960 69.254227,19.878077 
	C70.110039,19.277517 70.699585,18.795843 71.289124,18.314169 
	C71.289124,18.314169 71.159180,18.259809 71.519928,18.280201 
	C74.925003,20.193373 77.969315,22.086153 81.013634,23.978931 
	C81.429489,24.314457 81.845337,24.649984 82.695686,25.332760 
	C86.409508,27.472496 89.688828,29.264980 92.968147,31.057465 
	C92.968147,31.057463 92.983063,30.994064 93.133621,31.265316 
	C93.851547,31.706026 94.418900,31.875486 94.986259,32.044949 
	C94.986259,32.044949 95.191994,32.449387 95.263184,32.664806 
z"/>
<path fill="#ADCBF6" opacity="1.000000" stroke="none" 
	d="
M127.999222,86.999390 
	C127.999664,74.383667 127.920853,61.767143 128.049011,49.152721 
	C128.087311,45.382576 127.810699,42.528042 122.870491,42.856308 
	C121.680000,42.935413 120.393494,41.569775 119.475983,40.452034 
	C122.473892,40.391563 125.146950,40.747604 127.820007,41.103645 
	C128.478027,43.049355 129.714828,44.999306 129.700592,46.940086 
	C129.604675,60.025799 129.243622,73.109566 128.685211,86.596100 
	C128.402023,86.998238 127.999214,86.999390 127.999222,86.999390 
z"/>
<path fill="#080A6C" opacity="1.000000" stroke="none" 
	d="
M74.262177,167.778992 
	C73.253433,167.995056 72.502975,167.969162 71.377731,167.970627 
	C69.638283,167.317032 68.273613,166.636093 66.457077,165.687256 
	C65.672363,165.345032 65.339531,165.270721 65.006699,165.196396 
	C62.330933,163.737305 59.655167,162.278214 56.910007,160.463013 
	C62.489567,161.893692 68.138519,163.680481 72.056450,164.919739 
	C76.930412,163.339920 80.537926,162.170593 84.565460,161.259186 
	C84.991112,161.690094 84.996742,161.863098 85.002380,162.036102 
	C81.508400,163.869736 78.014420,165.703369 74.262177,167.778992 
z"/>
<path fill="#060B65" opacity="1.000000" stroke="none" 
	d="
M77.973335,149.928864 
	C77.973335,149.928864 78.024872,149.554001 78.353432,149.261475 
	C79.860382,148.043762 81.038773,147.118607 82.217163,146.193436 
	C82.217163,146.193436 82.110062,146.147675 82.404427,146.141479 
	C83.143845,145.763000 83.588905,145.390686 84.033966,145.018372 
	C84.033958,145.018372 84.006821,144.994781 84.332443,144.919678 
	C86.588058,143.192520 88.518059,141.540482 90.448059,139.888443 
	C90.448059,139.888443 90.761292,139.791443 91.131973,139.541168 
	C93.293312,137.824814 95.083961,136.358734 96.874619,134.892639 
	C97.545807,140.528656 91.686012,141.090973 88.881104,144.783539 
	C85.889572,147.693451 87.591652,148.497070 90.000305,148.995728 
	C92.280327,152.267670 89.601036,151.823090 87.183594,151.734375 
	C84.744713,150.979080 82.871933,150.488373 80.999146,149.997650 
	C80.211693,150.314774 79.424248,150.631897 78.316689,150.706573 
	C77.988831,150.285675 77.981079,150.107269 77.973335,149.928864 
z"/>
<path fill="#080A6C" opacity="1.000000" stroke="none" 
	d="
M61.867737,145.375473 
	C65.346451,147.594009 68.825165,149.812546 72.990547,152.000549 
	C74.700821,151.565933 75.724434,151.161880 76.813042,150.820312 
	C76.878044,150.882797 77.007698,151.008148 77.007698,151.008148 
	C75.822807,154.261047 71.568893,155.068115 68.433762,152.958664 
	C66.605400,151.728470 64.357391,150.326263 62.320171,150.359253 
	C57.281929,150.440842 58.848724,145.153091 56.450279,143.215103 
	C57.999191,143.397980 59.213272,143.924423 60.427353,144.450882 
	C60.427353,144.450882 60.508747,144.432510 60.695930,144.678741 
	C61.211323,145.075119 61.539532,145.225296 61.867737,145.375473 
z"/>
<path fill="#ADCBF6" opacity="1.000000" stroke="none" 
	d="
M117.039391,39.912048 
	C115.048653,39.998436 113.012550,40.391701 111.076866,40.105587 
	C107.359138,39.556072 103.632393,38.834560 100.050972,37.726688 
	C98.855392,37.356850 98.091942,35.590057 97.216240,34.056931 
	C99.901939,34.329929 102.502342,35.007847 105.597343,36.202316 
	C107.046211,36.876438 108.000473,37.034016 108.954742,37.191589 
	C108.954742,37.191589 108.954887,37.081051 109.110672,37.415291 
	C111.857437,38.470367 114.448418,39.191208 117.039391,39.912048 
z"/>
<path fill="#060576" opacity="1.000000" stroke="none" 
	d="
M38.996956,24.249138 
	C38.998016,23.270742 39.001373,22.542021 39.010242,21.450914 
	C44.827293,20.035061 48.367859,23.674755 51.695278,27.772732 
	C50.992313,28.482704 50.497505,28.744705 49.719219,28.801266 
	C45.957623,27.396606 42.479496,26.197388 39.001373,24.998169 
	C39.001373,24.998169 38.999249,24.498810 38.996956,24.249138 
z"/>
<path fill="#080A6C" opacity="1.000000" stroke="none" 
	d="
M22.907061,128.731430 
	C19.172235,123.765907 15.477284,118.384811 11.705904,112.662979 
	C11.951398,112.283058 12.494129,112.109718 12.563548,112.223969 
	C15.879910,117.681854 22.842560,120.795494 22.907061,128.731430 
z"/>
<path fill="#A5C4F2" opacity="1.000000" stroke="none" 
	d="
M102.865402,129.305634 
	C103.230865,123.713051 108.434967,116.970032 112.513580,116.998520 
	C109.618210,121.056541 106.389000,125.111237 102.865402,129.305634 
z"/>
<path fill="#080A6C" opacity="1.000000" stroke="none" 
	d="
M39.007492,25.383234 
	C42.479496,26.197388 45.957623,27.396606 49.719147,29.169682 
	C49.986526,30.480492 49.970505,31.217443 49.715729,31.972736 
	C49.476978,31.991079 48.996071,31.999844 48.996071,31.999844 
	C46.466900,30.971914 43.842674,30.120718 41.452160,28.834990 
	C40.395248,28.266537 39.811924,26.817551 39.007492,25.383234 
z"/>
<path fill="#ABC8F6" opacity="1.000000" stroke="none" 
	d="
M121.366692,104.925682 
	C122.814514,99.296646 122.528191,92.678635 128.161423,88.418671 
	C126.243843,93.957497 123.953308,99.352303 121.366692,104.925682 
z"/>
<path fill="#0C1766" opacity="1.000000" stroke="none" 
	d="
M49.954483,31.954395 
	C49.970505,31.217443 49.986526,30.480492 50.002621,29.375122 
	C50.497505,28.744705 50.992313,28.482704 51.746212,28.112957 
	C56.121853,26.351969 60.238403,24.698727 64.741211,23.068295 
	C64.772858,23.477184 64.418236,23.863262 63.919930,24.478264 
	C63.776241,24.707186 63.812714,24.724184 63.489208,24.818569 
	C61.661022,25.966532 60.156338,27.020107 58.651657,28.073685 
	C58.651657,28.073685 58.304073,28.124626 57.854530,28.345446 
	C56.869053,28.988569 56.333118,29.410875 55.797180,29.833179 
	C55.797180,29.833178 55.931423,29.875252 55.545811,29.898746 
	C53.488277,30.664286 51.816357,31.406330 50.097031,32.099796 
	C50.049629,32.051220 49.954483,31.954395 49.954483,31.954395 
z"/>
<path fill="#030A5D" opacity="1.000000" stroke="none" 
	d="
M117.368515,39.929008 
	C114.448418,39.191208 111.857437,38.470367 109.057182,37.429184 
	C115.730278,35.968620 122.132271,37.428478 128.011185,40.894192 
	C125.146950,40.747604 122.473892,40.391563 119.396957,40.095512 
	C118.561272,40.085655 118.129463,40.015816 117.368515,39.929008 
z"/>
<path fill="#A4C2F3" opacity="1.000000" stroke="none" 
	d="
M60.592010,144.057388 
	C59.213272,143.924423 57.999191,143.397980 56.435547,142.885010 
	C56.085983,142.898499 56.059750,142.942291 55.940979,142.634186 
	C53.939365,140.859070 52.056522,139.392090 50.173679,137.925095 
	C50.150581,137.757996 50.127487,137.590881 50.158047,137.176483 
	C54.222103,138.398407 60.224697,136.748291 60.592010,144.057388 
z"/>
<path fill="#ACCCF8" opacity="1.000000" stroke="none" 
	d="
M96.894371,134.916077 
	C95.083961,136.358734 93.293312,137.824814 91.244171,139.421631 
	C90.457756,134.557785 93.781708,131.364182 99.033569,132.300476 
	C99.064384,132.840836 98.729828,133.251801 97.925919,133.858978 
	C97.255974,134.345810 97.055382,134.636444 96.854790,134.927063 
	C96.854790,134.927063 96.914124,134.939529 96.894371,134.916077 
z"/>
<path fill="#080A6C" opacity="1.000000" stroke="none" 
	d="
M11.769766,111.939743 
	C10.663202,110.583023 9.686483,108.848259 8.627095,106.790215 
	C10.368715,105.435219 12.193005,104.403511 14.017294,103.371803 
	C14.448723,103.572235 14.880151,103.772659 15.311580,103.973091 
	C14.174257,106.502632 13.036934,109.032173 11.769766,111.939743 
z"/>
<path fill="#ABC8F6" opacity="1.000000" stroke="none" 
	d="
M113.408218,116.070885 
	C114.245934,111.643776 114.876122,106.756966 120.748215,105.074982 
	C118.648109,108.695412 116.190453,112.328560 113.408218,116.070885 
z"/>
<path fill="#080A6C" opacity="1.000000" stroke="none" 
	d="
M8.110826,77.438828 
	C8.883582,78.183266 9.963975,79.214394 10.169806,80.397652 
	C10.452902,82.025078 10.074279,83.767609 9.979163,85.460823 
	C9.328953,85.471436 8.678743,85.482056 8.028533,85.492668 
	C8.028533,82.926224 8.028533,80.359779 8.110826,77.438828 
z"/>
<path fill="#080A6C" opacity="1.000000" stroke="none" 
	d="
M56.928482,159.763794 
	C54.294567,158.363022 51.688511,156.575394 48.934547,154.484741 
	C52.309792,154.655548 57.098099,153.139908 56.928482,159.763794 
z"/>
<path fill="#0D0D5C" opacity="1.000000" stroke="none" 
	d="
M85.347260,161.981171 
	C84.996742,161.863098 84.991112,161.690094 84.975227,161.257645 
	C86.845306,159.515259 88.725639,158.032333 91.023132,156.166718 
	C91.712776,155.584320 91.899696,155.323334 92.001038,155.001053 
	C92.001038,155.001053 92.000000,155.000000 92.219650,154.891815 
	C92.712845,154.583374 92.899361,154.321213 92.998848,153.997131 
	C93.819946,154.029739 94.641052,154.062332 95.867065,154.169403 
	C92.745377,156.804672 89.218758,159.365463 85.347260,161.981171 
z"/>
<path fill="#0D1965" opacity="1.000000" stroke="none" 
	d="
M92.968628,30.679768 
	C89.688828,29.264980 86.409508,27.472496 82.972862,25.378065 
	C86.200058,26.818106 89.584587,28.560089 92.968628,30.679768 
z"/>
<path fill="#0D1965" opacity="1.000000" stroke="none" 
	d="
M81.005402,23.608347 
	C77.969315,22.086153 74.925003,20.193373 71.538727,18.348078 
	C74.959633,16.198841 78.724449,18.058968 81.005402,23.608347 
z"/>
<path fill="#0D0D5C" opacity="1.000000" stroke="none" 
	d="
M106.096161,145.552109 
	C103.889671,147.834274 101.337700,149.935135 98.435837,152.088135 
	C98.928787,147.945328 101.592079,145.811523 106.096161,145.552109 
z"/>
<path fill="#0D0D5C" opacity="1.000000" stroke="none" 
	d="
M113.818298,138.109619 
	C111.892654,140.482697 109.588776,142.812836 107.022385,145.312469 
	C106.481834,140.753723 109.738632,139.209915 113.818298,138.109619 
z"/>
<path fill="#080A6C" opacity="1.000000" stroke="none" 
	d="
M22.736782,113.024872 
	C23.778688,113.892220 24.458643,114.754189 25.138594,115.616150 
	C24.294569,116.032768 23.364967,116.893814 22.628481,116.751999 
	C21.735424,116.580017 21.005472,115.561005 20.204948,114.908493 
	C20.928242,114.278824 21.651537,113.649162 22.736782,113.024872 
z"/>
<path fill="#080A6C" opacity="1.000000" stroke="none" 
	d="
M48.998932,150.998947 
	C48.808987,149.574265 48.620106,148.150620 48.431229,146.726990 
	C48.687363,146.410156 48.943501,146.093323 49.199635,145.776474 
	C50.398037,146.837875 51.596439,147.899277 52.794846,148.960663 
	C51.788029,149.639969 50.781208,150.319260 49.388260,151.000290 
	C49.002136,151.002029 49.000000,151.000000 48.998932,150.998947 
z"/>
<path fill="#0A1563" opacity="1.000000" stroke="none" 
	d="
M17.091120,89.689690 
	C17.898615,92.310165 18.616947,94.621315 19.110954,97.296616 
	C17.929008,97.436821 16.971390,97.212875 16.013771,96.988922 
	C16.006792,94.621826 15.999815,92.254723 15.983407,89.444122 
	C15.983958,88.817253 15.993940,88.633904 16.209942,88.238907 
	C16.415960,88.027260 16.805471,88.108566 16.805471,88.108566 
	C16.870966,88.532501 16.936462,88.956429 17.091120,89.689690 
z"/>
<path fill="#080A6C" opacity="1.000000" stroke="none" 
	d="
M49.902687,138.108978 
	C52.056522,139.392090 53.939365,140.859070 55.964676,142.626648 
	C53.013851,142.688614 49.889229,142.493759 49.902687,138.108978 
z"/>
<path fill="#0D0D5C" opacity="1.000000" stroke="none" 
	d="
M118.754974,132.080597 
	C117.669434,134.027191 116.221481,135.984756 114.461983,138.068604 
	C115.564476,136.160477 116.978516,134.126022 118.754974,132.080597 
z"/>
<path fill="#080A6C" opacity="1.000000" stroke="none" 
	d="
M81.056229,150.344086 
	C82.871933,150.488373 84.744713,150.979080 86.808441,151.735580 
	C85.037361,151.564438 83.075340,151.127487 81.056229,150.344086 
z"/>
<path fill="#080A6C" opacity="1.000000" stroke="none" 
	d="
M18.999763,109.704956 
	C18.619568,110.782867 18.239586,111.500427 17.859604,112.217987 
	C17.430405,111.529205 16.512274,110.695976 16.664970,110.179108 
	C17.098648,108.711159 17.969603,107.372398 18.999977,105.323410 
	C18.999977,107.115150 18.999977,108.229881 18.999763,109.704956 
z"/>
<path fill="#080A6C" opacity="1.000000" stroke="none" 
	d="
M15.742916,97.225227 
	C16.971390,97.212875 17.929008,97.436821 19.257505,97.636292 
	C19.628384,97.611824 19.579239,97.627472 19.472069,97.886703 
	C19.556519,98.426483 19.748137,98.707039 19.939754,98.987587 
	C19.939756,98.987587 20.101786,99.418762 20.142159,99.645416 
	C18.485800,99.315895 15.153874,101.955101 15.742916,97.225227 
z"/>
<path fill="#0A1563" opacity="1.000000" stroke="none" 
	d="
M20.029049,100.123474 
	C21.454008,101.850746 22.743376,103.852432 23.526703,105.940735 
	C22.016903,105.348885 21.013144,104.670410 20.009384,103.991943 
	C20.009382,103.991943 20.004580,103.496117 19.894505,103.029282 
	C19.586821,102.289459 19.327953,102.100311 19.007824,101.994987 
	C19.303034,101.462616 19.598244,100.930244 20.029049,100.123474 
z"/>
<path fill="#080A6C" opacity="1.000000" stroke="none" 
	d="
M90.000130,148.630219 
	C87.591652,148.497070 85.889572,147.693451 88.660072,145.052307 
	C89.332573,146.087555 89.666267,147.176147 90.000130,148.630219 
z"/>
<path fill="#080A6C" opacity="1.000000" stroke="none" 
	d="
M18.641708,34.475262 
	C18.059534,33.624817 17.793665,32.626163 17.527798,31.627514 
	C18.106310,31.561363 18.684824,31.495213 19.263338,31.429062 
	C19.161564,32.395058 19.059788,33.361057 18.641708,34.475262 
z"/>
<path fill="#080A6C" opacity="1.000000" stroke="none" 
	d="
M80.809479,156.215897 
	C80.468475,157.228134 80.027504,157.899506 79.586548,158.570862 
	C79.121155,157.821671 78.655762,157.072479 78.190369,156.323303 
	C79.030083,156.173874 79.869797,156.024445 80.809479,156.215897 
z"/>
<path fill="#080A6C" opacity="1.000000" stroke="none" 
	d="
M65.135986,157.642624 
	C65.531654,156.693100 66.000603,156.072083 66.469543,155.451080 
	C66.860458,156.062637 67.251373,156.674194 67.642288,157.285751 
	C66.831284,157.514221 66.020271,157.742676 65.135986,157.642624 
z"/>
<path fill="#0A1563" opacity="1.000000" stroke="none" 
	d="
M28.420738,112.557159 
	C27.981186,112.921608 27.416491,112.956650 26.428810,112.994049 
	C25.669365,111.525063 25.332903,110.053726 24.994030,108.192368 
	C26.092941,109.277481 27.194267,110.752617 28.420738,112.557159 
z"/>
<path fill="#080A6C" opacity="1.000000" stroke="none" 
	d="
M20.019489,104.401062 
	C21.013144,104.670410 22.016903,105.348885 23.352085,106.229065 
	C23.683510,106.430763 23.629335,106.485374 23.652256,106.518555 
	C22.459984,105.971222 21.244789,105.390694 20.019489,104.401062 
z"/>
<path fill="#0C1766" opacity="1.000000" stroke="none" 
	d="
M68.561905,19.978651 
	C68.214165,20.662685 67.503479,21.363396 66.503563,22.161661 
	C66.875877,21.504587 67.537422,20.749958 68.561905,19.978651 
z"/>
<path fill="#A5C4F2" opacity="1.000000" stroke="none" 
	d="
M99.959122,131.018280 
	C100.554726,130.439407 101.150330,129.860535 102.084015,129.425720 
	C101.790596,130.261856 101.159096,130.953949 100.249893,131.537720 
	C99.972183,131.429413 99.959122,131.018280 99.959122,131.018280 
z"/>
<path fill="#080A6C" opacity="1.000000" stroke="none" 
	d="
M97.010544,145.739197 
	C96.822227,146.222534 96.440681,146.509521 96.059135,146.796494 
	C95.881866,146.426437 95.704605,146.056366 95.527344,145.686310 
	C95.957336,145.638474 96.387321,145.590652 97.010544,145.739197 
z"/>
<path fill="#080A6C" opacity="1.000000" stroke="none" 
	d="
M8.396286,52.954533 
	C8.791281,52.713585 9.184196,52.715324 9.574917,52.745495 
	C9.585896,52.746346 9.573421,53.050907 9.571882,53.213852 
	C9.179221,53.209637 8.786561,53.205418 8.396286,52.954533 
z"/>
<path fill="#0D1965" opacity="1.000000" stroke="none" 
	d="
M70.952499,18.250221 
	C70.699585,18.795843 70.110039,19.277517 69.242599,19.843924 
	C69.515099,19.347860 70.065491,18.767067 70.952499,18.250221 
z"/>
<path fill="#030A5D" opacity="1.000000" stroke="none" 
	d="
M108.759911,36.874252 
	C108.000473,37.034016 107.046211,36.876438 105.893158,36.413567 
	C106.651268,36.257816 107.608177,36.407368 108.759911,36.874252 
z"/>
<path fill="#080A6C" opacity="1.000000" stroke="none" 
	d="
M92.850166,153.840698 
	C92.899361,154.321213 92.712845,154.583374 92.220108,154.892349 
	C92.234436,154.562149 92.467964,154.123199 92.850166,153.840698 
z"/>
<path fill="#080A6C" opacity="1.000000" stroke="none" 
	d="
M18.848938,102.142548 
	C19.327953,102.100311 19.586821,102.289459 19.891489,102.781372 
	C19.562382,102.763573 19.126215,102.526840 18.848938,102.142548 
z"/>
<path fill="#0D1965" opacity="1.000000" stroke="none" 
	d="
M94.819000,31.789047 
	C94.418900,31.875486 93.851547,31.706026 93.110641,31.288414 
	C93.508636,31.204557 94.080193,31.368853 94.819000,31.789047 
z"/>
<path fill="#080A6C" opacity="1.000000" stroke="none" 
	d="
M91.769958,155.009003 
	C91.899696,155.323334 91.712776,155.584320 91.221909,155.892914 
	C91.181969,155.673538 91.360420,155.345245 91.769958,155.009003 
z"/>
<path fill="#0C1766" opacity="1.000000" stroke="none" 
	d="
M48.992043,32.205299 
	C48.996071,31.999844 49.476978,31.991079 49.715729,31.972736 
	C49.954483,31.954395 50.049629,32.051220 50.037613,32.304646 
	C50.025593,32.558071 49.889057,32.962215 49.889057,32.962215 
	C49.889057,32.962215 49.407631,32.942551 49.174732,32.880844 
	C48.941833,32.819138 48.988014,32.410755 48.992043,32.205299 
z"/>
<path fill="#AFCDFA" opacity="1.000000" stroke="none" 
	d="
M47.886177,33.841610 
	C47.610550,33.876686 47.787399,33.430061 47.898697,33.217239 
	C48.183029,33.017132 48.356056,33.029850 48.783176,33.098854 
	C48.745449,33.372276 48.453629,33.589405 47.886177,33.841610 
z"/>
<path fill="#0D0D5C" opacity="1.000000" stroke="none" 
	d="
M96.894707,153.182007 
	C97.008514,153.404678 96.866241,153.741302 96.469131,154.185730 
	C96.355743,153.961029 96.497185,153.628479 96.894707,153.182007 
z"/>
<path fill="#0D0D5C" opacity="1.000000" stroke="none" 
	d="
M97.897552,152.166046 
	C97.963371,152.372055 97.774727,152.671387 97.329041,153.060562 
	C97.262352,152.853394 97.452713,152.556381 97.897552,152.166046 
z"/>
<path fill="#0C1766" opacity="1.000000" stroke="none" 
	d="
M65.987778,22.230635 
	C66.038757,22.454687 65.816002,22.727085 65.328125,23.068878 
	C65.280022,22.851841 65.497032,22.565411 65.987778,22.230635 
z"/>
<path fill="#ADCBF6" opacity="1.000000" stroke="none" 
	d="
M97.177231,33.496696 
	C96.982773,33.655621 96.653419,33.583996 96.170151,33.302750 
	C96.358261,33.150803 96.700310,33.208477 97.177231,33.496696 
z"/>
<path fill="#080A6C" opacity="1.000000" stroke="none" 
	d="
M77.726013,149.959076 
	C77.981079,150.107269 77.988831,150.285675 77.997513,150.731934 
	C77.998451,150.999786 77.502670,151.000702 77.255188,151.004425 
	C77.007698,151.008148 76.878044,150.882797 76.851501,150.622803 
	C76.824959,150.362823 76.980385,149.991653 76.980385,149.991653 
	C76.980385,149.991653 77.478691,149.989273 77.726013,149.959076 
z"/>
<path fill="#0F1157" opacity="1.000000" stroke="none" 
	d="
M140.631332,96.235275 
	C140.792892,96.427628 140.737595,96.835388 140.432159,97.440170 
	C140.259506,97.241692 140.336990,96.846184 140.631332,96.235275 
z"/>
<path fill="#ABC8F6" opacity="1.000000" stroke="none" 
	d="
M128.093536,87.341782 
	C127.999214,86.999390 128.402023,86.998238 128.603424,86.997627 
	C128.922989,87.300163 128.935928,87.607697 128.703079,88.103615 
	C128.437637,88.086479 128.312759,87.885323 128.093536,87.341782 
z"/>
<path fill="#080A6C" opacity="1.000000" stroke="none" 
	d="
M23.779018,129.960602 
	C23.554590,130.028427 23.261839,129.832474 22.901436,129.371124 
	C23.126087,129.302765 23.418390,129.499802 23.779018,129.960602 
z"/>
<path fill="#060B65" opacity="1.000000" stroke="none" 
	d="
M97.099106,134.854385 
	C97.055382,134.636444 97.255974,134.345810 97.727898,134.041107 
	C97.780632,134.278564 97.562027,134.530136 97.099106,134.854385 
z"/>
<path fill="#0D0D5C" opacity="1.000000" stroke="none" 
	d="
M121.949562,129.173645 
	C122.053596,129.401001 121.888123,129.735519 121.459534,130.181717 
	C121.357628,129.955856 121.518845,129.618332 121.949562,129.173645 
z"/>
<path fill="#0D0D5C" opacity="1.000000" stroke="none" 
	d="
M119.883377,131.155731 
	C119.945671,131.357849 119.758446,131.656250 119.313408,132.039490 
	C119.248352,131.833542 119.441109,131.542770 119.883377,131.155731 
z"/>
<path fill="#ACCCF8" opacity="1.000000" stroke="none" 
	d="
M99.737411,131.185013 
	C99.959122,131.018280 99.972183,131.429413 99.979919,131.634918 
	C99.987656,131.840439 99.793900,132.229919 99.597855,132.322754 
	C99.439774,132.060974 99.477730,131.706360 99.737411,131.185013 
z"/>
<path fill="#0D0D5C" opacity="1.000000" stroke="none" 
	d="
M121.004814,130.243225 
	C121.050301,130.462311 120.819771,130.723495 120.323196,131.059921 
	C120.281029,130.851898 120.504913,130.568619 121.004814,130.243225 
z"/>
<path fill="#F5F6F9" opacity="1.000000" stroke="none" 
	d="
M4.253642,108.834755 
	C3.748245,107.592545 3.456380,106.636604 3.164515,105.680672 
	C3.548302,105.517441 3.932089,105.354218 4.315876,105.190987 
	C5.612161,107.468170 6.908446,109.745354 8.204731,112.022545 
	C7.660490,112.325813 7.116249,112.629089 6.572009,112.932365 
	C5.870397,111.661919 5.168786,110.391479 4.253642,108.834755 
z"/>
<path fill="#EEEFF8" opacity="1.000000" stroke="none" 
	d="
M65.158737,165.397888 
	C65.339531,165.270721 65.672363,165.345032 66.127930,165.657471 
	C65.937370,165.796860 65.624069,165.698120 65.158737,165.397888 
z"/>
<path fill="#F5F6F9" opacity="1.000000" stroke="none" 
	d="
M5.157361,99.896301 
	C5.381564,99.897011 5.619751,100.162735 5.831030,100.707489 
	C5.593196,100.711441 5.382271,100.436378 5.157361,99.896301 
z"/>
<path fill="#F5F6F9" opacity="1.000000" stroke="none" 
	d="
M6.064303,102.143356 
	C6.333037,102.028481 6.553017,102.224419 6.679515,102.747185 
	C6.407487,102.838623 6.217326,102.632004 6.064303,102.143356 
z"/>
<path fill="#F5F6F9" opacity="1.000000" stroke="none" 
	d="
M3.448989,103.533249 
	C3.415153,103.476891 3.482826,103.589600 3.448989,103.533249 
z"/>
<path fill="#06086C" opacity="1.000000" stroke="none" 
	d="
M63.046078,113.961639 
	C62.509632,108.463028 61.939178,102.967384 61.458069,97.463936 
	C61.319054,95.873741 61.436741,94.261108 61.436741,92.115250 
	C56.349178,92.115250 51.563446,92.025658 46.783150,92.148193 
	C43.821835,92.224083 42.488827,90.929108 42.493347,88.046516 
	C42.502453,82.243172 42.496056,76.439804 42.496056,70.083000 
	C49.107033,69.682739 55.174030,69.315407 61.818142,68.913139 
	C61.818142,63.842407 61.927727,58.896561 61.777733,53.958603 
	C61.685268,50.914509 62.875988,49.847439 65.895210,49.942181 
	C70.881744,50.098652 75.886963,49.753677 80.865982,49.996189 
	C82.278358,50.064980 83.627151,51.439247 85.016899,53.087322 
	C85.028702,58.525188 85.028702,63.090542 85.028702,67.992455 
	C88.774757,67.992455 91.884430,67.992455 94.994095,67.992455 
	C96.068588,68.044075 97.143089,68.095695 99.002350,68.161072 
	C100.846817,68.155174 101.906517,68.135521 102.966217,68.115860 
	C103.426559,72.311234 104.193901,76.499649 104.289307,80.703300 
	C104.568489,93.004684 104.463539,92.991684 92.229568,93.016502 
	C89.916946,93.021194 87.604698,93.202194 84.753609,93.858269 
	C84.139694,100.567841 84.064445,106.720978 83.989197,112.874123 
	C83.561745,112.928474 83.134308,112.982819 82.178261,112.802399 
	C80.435371,112.989799 79.221077,113.411980 77.546005,113.911690 
	C72.405502,113.980026 67.725792,113.970833 63.046078,113.961639 
z"/>
<path fill="#AFD0FA" opacity="1.000000" stroke="none" 
	d="
M63.097980,114.341568 
	C67.725792,113.970833 72.405502,113.980026 77.917732,113.976028 
	C79.500114,114.024086 80.249977,114.085335 80.999832,114.146576 
	C79.848045,115.097618 78.598213,116.956528 77.561211,116.844543 
	C72.742813,116.324219 67.373055,119.114075 63.097980,114.341568 
z"/>
<path fill="#AFCDFA" opacity="1.000000" stroke="none" 
	d="
M16.402008,60.668297 
	C15.781784,56.071453 15.221499,51.168797 15.151668,46.259167 
	C15.110878,43.391453 15.861704,40.669956 19.896873,40.885868 
	C21.634195,40.978825 23.410704,40.339367 25.582001,40.085922 
	C25.277617,40.937550 24.552322,42.435127 23.844948,42.426708 
	C16.291780,42.336842 17.380148,47.934635 17.020237,52.548710 
	C16.817667,55.145683 16.779907,57.755516 16.402008,60.668297 
z"/>
<path fill="#ADCCFC" opacity="1.000000" stroke="none" 
	d="
M94.737030,67.711845 
	C91.884430,67.992455 88.774757,67.992455 85.028702,67.992455 
	C85.028702,63.090542 85.028702,58.525188 85.107758,53.501972 
	C85.458885,54.437248 85.938362,55.825794 85.969315,57.224270 
	C86.167419,66.175346 86.135025,66.176064 94.737030,67.711845 
z"/>
<path fill="#ACCCF8" opacity="1.000000" stroke="none" 
	d="
M90.123497,139.658600 
	C88.518059,141.540482 86.588058,143.192520 84.336838,144.936584 
	C83.276970,143.713013 82.538322,142.397415 81.388832,140.350052 
	C84.374016,140.023041 87.086472,139.725891 90.123497,139.658600 
z"/>
<path fill="#AFCDFA" opacity="1.000000" stroke="none" 
	d="
M17.112984,87.868301 
	C16.805471,88.108566 16.415960,88.027260 16.227320,87.964020 
	C16.036650,80.250771 16.034620,72.600769 16.100643,64.487801 
	C16.446840,67.221863 16.822601,70.414093 16.979979,73.617058 
	C17.209255,78.283325 17.281374,82.957329 17.112984,87.868301 
z"/>
<path fill="#010C5F" opacity="1.000000" stroke="none" 
	d="
M84.387283,112.711945 
	C84.064445,106.720978 84.139694,100.567841 84.511322,94.232178 
	C84.800255,100.216362 84.792816,106.383064 84.387283,112.711945 
z"/>
<path fill="#ADCBF6" opacity="1.000000" stroke="none" 
	d="
M58.750431,28.405464 
	C60.156338,27.020107 61.661022,25.966532 63.473534,24.824318 
	C62.876171,27.067831 61.970982,29.399979 60.667248,32.758934 
	C59.763752,30.760311 59.306480,29.748777 58.750431,28.405464 
z"/>
<path fill="#AFCDFA" opacity="1.000000" stroke="none" 
	d="
M37.328003,37.486588 
	C39.121357,36.556927 41.191750,35.849056 43.627106,35.139858 
	C41.863060,35.995144 39.734055,36.851757 37.328003,37.486588 
z"/>
<path fill="#ADCBF6" opacity="1.000000" stroke="none" 
	d="
M50.301430,32.973717 
	C49.889057,32.962215 50.025593,32.558071 50.085014,32.353222 
	C51.816357,31.406330 53.488277,30.664286 55.498070,29.847088 
	C55.883457,33.640419 53.022652,32.872887 50.301430,32.973717 
z"/>
<path fill="#AFCDFA" opacity="1.000000" stroke="none" 
	d="
M28.020073,39.922493 
	C29.224724,39.292896 30.627083,38.985252 32.393822,38.627987 
	C32.076900,41.401573 30.385826,41.472935 28.020073,39.922493 
z"/>
<path fill="#010C5F" opacity="1.000000" stroke="none" 
	d="
M81.244354,114.051361 
	C80.249977,114.085335 79.500114,114.024086 78.378525,113.898499 
	C79.221077,113.411980 80.435371,112.989799 81.856995,112.844757 
	C81.872513,113.399971 81.680695,113.678047 81.244354,114.051361 
z"/>
<path fill="#ACCCF8" opacity="1.000000" stroke="none" 
	d="
M81.830688,146.136505 
	C81.038773,147.118607 79.860382,148.043762 78.371857,149.073151 
	C79.189209,148.144775 80.316711,147.112167 81.830688,146.136505 
z"/>
<path fill="#ACCCF8" opacity="1.000000" stroke="none" 
	d="
M76.610756,149.995270 
	C76.980385,149.991653 76.824959,150.362823 76.786499,150.560318 
	C75.724434,151.161880 74.700821,151.565933 73.342926,151.944183 
	C74.086143,151.278534 75.163635,150.638702 76.610756,149.995270 
z"/>
<path fill="#ADCCFC" opacity="1.000000" stroke="none" 
	d="
M102.783752,67.832054 
	C101.906517,68.135521 100.846817,68.155174 99.400383,68.079651 
	C100.209534,67.839066 101.405411,67.693657 102.783752,67.832054 
z"/>
<path fill="#AFCDFA" opacity="1.000000" stroke="none" 
	d="
M33.036755,38.760960 
	C33.269047,38.456978 33.812439,38.238834 34.664490,38.053562 
	C34.431385,38.339890 33.889618,38.593346 33.036755,38.760960 
z"/>
<path fill="#ACCCF8" opacity="1.000000" stroke="none" 
	d="
M83.717697,145.042160 
	C83.588905,145.390686 83.143845,145.763000 82.409454,146.199493 
	C82.547226,145.864441 82.974327,145.465195 83.717697,145.042160 
z"/>
<path fill="#AFCDFA" opacity="1.000000" stroke="none" 
	d="
M43.881401,130.005585 
	C43.433540,130.014771 42.986858,129.651321 42.444588,129.019745 
	C42.860188,129.045380 43.371384,129.339172 43.881401,130.005585 
z"/>
<path fill="#ADCBF6" opacity="1.000000" stroke="none" 
	d="
M56.174797,29.846329 
	C56.333118,29.410875 56.869053,28.988569 57.751278,28.487541 
	C57.582516,28.892370 57.067463,29.375923 56.174797,29.846329 
z"/>
<path fill="#AFCDFA" opacity="1.000000" stroke="none" 
	d="
M15.974176,62.805332 
	C15.796216,62.768288 15.629661,62.426426 15.712964,61.987732 
	C15.970408,62.094105 15.977996,62.297314 15.974176,62.805332 
z"/>
<path fill="#AFCDFA" opacity="1.000000" stroke="none" 
	d="
M45.777962,131.965546 
	C45.551800,132.049362 45.223270,131.845688 44.763969,131.377106 
	C44.980667,131.300827 45.328129,131.489426 45.777962,131.965546 
z"/>
<path fill="#A4C2F3" opacity="1.000000" stroke="none" 
	d="
M61.775810,145.082794 
	C61.539532,145.225296 61.211323,145.075119 60.732727,144.698395 
	C60.949520,144.577927 61.316700,144.684006 61.775810,145.082794 
z"/>
<path fill="#AFCDFA" opacity="1.000000" stroke="none" 
	d="
M47.841881,133.689835 
	C47.657673,133.805756 47.335239,133.715195 46.905731,133.369995 
	C47.148560,133.119461 47.450226,133.242126 47.841881,133.689835 
z"/>
<path fill="#AFCDFA" opacity="1.000000" stroke="none" 
	d="
M46.810242,132.936356 
	C46.585003,133.025070 46.266842,132.845428 45.849773,132.402817 
	C46.073017,132.315903 46.395168,132.491943 46.810242,132.936356 
z"/>
<path fill="#0A1563" opacity="1.000000" stroke="none" 
	d="
M20.011211,98.748199 
	C19.748137,98.707039 19.556519,98.426483 19.486771,97.904724 
	C19.901295,97.869736 20.059303,98.151497 20.011211,98.748199 
z"/>
</svg>